<mxfile host="65bd71144e">
    <diagram id="l6S5YZbqZ1aLfqrrMIcv" name="Page-1">
        <mxGraphModel dx="3103" dy="1109" grid="1" gridSize="10" guides="1" tooltips="1" connect="1" arrows="1" fold="1" page="1" pageScale="1" pageWidth="850" pageHeight="1100" math="0" shadow="0">
            <root>
                <mxCell id="0"/>
                <mxCell id="1" parent="0"/>
                <mxCell id="2" value="Student" style="rounded=0;whiteSpace=wrap;html=1;" parent="1" vertex="1">
                    <mxGeometry x="-247" y="720" width="120" height="60" as="geometry"/>
                </mxCell>
                <mxCell id="3" value="&lt;u&gt;Student ID&lt;/u&gt;" style="ellipse;whiteSpace=wrap;html=1;" parent="1" vertex="1">
                    <mxGeometry x="-247" y="545" width="120" height="80" as="geometry"/>
                </mxCell>
                <mxCell id="6" value="First Name" style="ellipse;whiteSpace=wrap;html=1;" parent="1" vertex="1">
                    <mxGeometry x="-465" y="670" width="120" height="80" as="geometry"/>
                </mxCell>
                <mxCell id="7" value="Last Name" style="ellipse;whiteSpace=wrap;html=1;" parent="1" vertex="1">
                    <mxGeometry x="-373" y="590" width="120" height="80" as="geometry"/>
                </mxCell>
                <mxCell id="10" value="Date of Birth" style="ellipse;whiteSpace=wrap;html=1;" parent="1" vertex="1">
                    <mxGeometry x="-465" y="760" width="120" height="80" as="geometry"/>
                </mxCell>
                <mxCell id="14" value="" style="edgeStyle=none;html=1;endArrow=none;endFill=0;strokeWidth=3;exitX=0.5;exitY=0;exitDx=0;exitDy=0;" parent="1" source="2" target="3" edge="1">
                    <mxGeometry relative="1" as="geometry">
                        <mxPoint x="-153.37666666666672" y="691.3299999999999" as="sourcePoint"/>
                        <mxPoint x="-197.00091074656933" y="650.0017687664078" as="targetPoint"/>
                    </mxGeometry>
                </mxCell>
                <mxCell id="15" value="" style="edgeStyle=none;html=1;endArrow=none;endFill=0;strokeWidth=3;entryX=0.943;entryY=0.769;entryDx=0;entryDy=0;exitX=0.25;exitY=0;exitDx=0;exitDy=0;entryPerimeter=0;" parent="1" source="2" target="7" edge="1">
                    <mxGeometry relative="1" as="geometry">
                        <mxPoint x="-177" y="730" as="sourcePoint"/>
                        <mxPoint x="-177" y="640" as="targetPoint"/>
                    </mxGeometry>
                </mxCell>
                <mxCell id="16" value="" style="edgeStyle=none;html=1;endArrow=none;endFill=0;strokeWidth=3;entryX=1;entryY=0.5;entryDx=0;entryDy=0;exitX=0;exitY=0.25;exitDx=0;exitDy=0;" parent="1" source="2" target="6" edge="1">
                    <mxGeometry relative="1" as="geometry">
                        <mxPoint x="-207" y="730" as="sourcePoint"/>
                        <mxPoint x="-274.57359312880806" y="618.2842712474613" as="targetPoint"/>
                    </mxGeometry>
                </mxCell>
                <mxCell id="17" value="" style="edgeStyle=none;html=1;endArrow=none;endFill=0;strokeWidth=3;entryX=1;entryY=0.5;entryDx=0;entryDy=0;exitX=0;exitY=0.75;exitDx=0;exitDy=0;" parent="1" source="2" target="10" edge="1">
                    <mxGeometry relative="1" as="geometry">
                        <mxPoint x="-212" y="800" as="sourcePoint"/>
                        <mxPoint x="-302" y="770" as="targetPoint"/>
                    </mxGeometry>
                </mxCell>
                <mxCell id="19" value="has a" style="rhombus;whiteSpace=wrap;html=1;" parent="1" vertex="1">
                    <mxGeometry x="-345" y="850" width="80" height="80" as="geometry"/>
                </mxCell>
                <mxCell id="21" value="Student Phone" style="rounded=0;whiteSpace=wrap;html=1;" parent="1" vertex="1">
                    <mxGeometry x="-365" y="1066" width="120" height="60" as="geometry"/>
                </mxCell>
                <mxCell id="22" value="&lt;u&gt;Phone Number ID&lt;/u&gt;" style="ellipse;whiteSpace=wrap;html=1;" parent="1" vertex="1">
                    <mxGeometry x="-535" y="1056" width="120" height="80" as="geometry"/>
                </mxCell>
                <mxCell id="23" value="&lt;u&gt;Student ID&lt;/u&gt;" style="ellipse;whiteSpace=wrap;html=1;" parent="1" vertex="1">
                    <mxGeometry x="-445" y="1176" width="120" height="80" as="geometry"/>
                </mxCell>
                <mxCell id="24" value="Phone Type" style="ellipse;whiteSpace=wrap;html=1;" parent="1" vertex="1">
                    <mxGeometry x="-275" y="1176" width="120" height="80" as="geometry"/>
                </mxCell>
                <mxCell id="25" value="Phone Number" style="ellipse;whiteSpace=wrap;html=1;" parent="1" vertex="1">
                    <mxGeometry x="-200" y="1056" width="120" height="80" as="geometry"/>
                </mxCell>
                <mxCell id="26" value="" style="edgeStyle=none;html=1;endArrow=none;endFill=0;strokeWidth=3;entryX=1;entryY=0.5;entryDx=0;entryDy=0;exitX=0;exitY=0.5;exitDx=0;exitDy=0;" parent="1" source="21" target="22" edge="1">
                    <mxGeometry relative="1" as="geometry">
                        <mxPoint x="-241" y="826" as="sourcePoint"/>
                        <mxPoint x="-310.9999999999977" y="886" as="targetPoint"/>
                    </mxGeometry>
                </mxCell>
                <mxCell id="27" value="" style="edgeStyle=none;html=1;endArrow=none;endFill=0;strokeWidth=3;exitX=0;exitY=0.5;exitDx=0;exitDy=0;" parent="1" source="25" edge="1">
                    <mxGeometry relative="1" as="geometry">
                        <mxPoint x="-311" y="1106" as="sourcePoint"/>
                        <mxPoint x="-201" y="1096" as="targetPoint"/>
                    </mxGeometry>
                </mxCell>
                <mxCell id="28" value="" style="edgeStyle=none;html=1;endArrow=none;endFill=0;strokeWidth=3;entryX=0.5;entryY=0;entryDx=0;entryDy=0;exitX=0.25;exitY=1;exitDx=0;exitDy=0;" parent="1" source="21" target="23" edge="1">
                    <mxGeometry relative="1" as="geometry">
                        <mxPoint x="-355" y="1106" as="sourcePoint"/>
                        <mxPoint x="-405" y="1106" as="targetPoint"/>
                    </mxGeometry>
                </mxCell>
                <mxCell id="29" value="" style="edgeStyle=none;html=1;endArrow=none;endFill=0;strokeWidth=3;entryX=0.5;entryY=0;entryDx=0;entryDy=0;exitX=0.75;exitY=1;exitDx=0;exitDy=0;" parent="1" source="21" target="24" edge="1">
                    <mxGeometry relative="1" as="geometry">
                        <mxPoint x="-210" y="1136" as="sourcePoint"/>
                        <mxPoint x="-260" y="1186" as="targetPoint"/>
                    </mxGeometry>
                </mxCell>
                <mxCell id="30" value="Home Address" style="ellipse;whiteSpace=wrap;html=1;" parent="1" vertex="1">
                    <mxGeometry x="-245" y="860" width="120" height="80" as="geometry"/>
                </mxCell>
                <mxCell id="31" value="Mailing Address" style="ellipse;whiteSpace=wrap;html=1;" parent="1" vertex="1">
                    <mxGeometry x="-121" y="830" width="120" height="80" as="geometry"/>
                </mxCell>
                <mxCell id="32" value="&lt;u&gt;Email Address&lt;/u&gt;" style="ellipse;whiteSpace=wrap;html=1;" parent="1" vertex="1">
                    <mxGeometry x="-121" y="570" width="120" height="80" as="geometry"/>
                </mxCell>
                <mxCell id="33" value="" style="edgeStyle=none;html=1;endArrow=none;endFill=0;strokeWidth=3;entryX=0.5;entryY=0;entryDx=0;entryDy=0;exitX=0.5;exitY=1;exitDx=0;exitDy=0;" parent="1" source="2" target="30" edge="1">
                    <mxGeometry relative="1" as="geometry">
                        <mxPoint x="-237" y="790" as="sourcePoint"/>
                        <mxPoint x="-247" y="850" as="targetPoint"/>
                    </mxGeometry>
                </mxCell>
                <mxCell id="36" value="" style="endArrow=none;html=1;entryX=0.293;entryY=0.964;entryDx=0;entryDy=0;exitX=0.75;exitY=0;exitDx=0;exitDy=0;entryPerimeter=0;" parent="1" source="2" target="32" edge="1">
                    <mxGeometry width="50" height="50" relative="1" as="geometry">
                        <mxPoint x="-137" y="880" as="sourcePoint"/>
                        <mxPoint x="-87" y="830" as="targetPoint"/>
                    </mxGeometry>
                </mxCell>
                <mxCell id="37" value="Start Date" style="ellipse;whiteSpace=wrap;html=1;" parent="1" vertex="1">
                    <mxGeometry x="-32" y="650" width="120" height="80" as="geometry"/>
                </mxCell>
                <mxCell id="38" value="End Date" style="ellipse;whiteSpace=wrap;html=1;" parent="1" vertex="1">
                    <mxGeometry x="-21" y="760" width="120" height="80" as="geometry"/>
                </mxCell>
                <mxCell id="39" value="" style="edgeStyle=none;html=1;endArrow=none;endFill=0;strokeWidth=3;entryX=-0.002;entryY=0.672;entryDx=0;entryDy=0;exitX=1;exitY=0.25;exitDx=0;exitDy=0;entryPerimeter=0;" parent="1" source="2" target="37" edge="1">
                    <mxGeometry relative="1" as="geometry">
                        <mxPoint x="-177" y="730" as="sourcePoint"/>
                        <mxPoint x="-267" y="610" as="targetPoint"/>
                    </mxGeometry>
                </mxCell>
                <mxCell id="40" value="" style="endArrow=none;html=1;exitX=1;exitY=0.75;exitDx=0;exitDy=0;" parent="1" source="2" edge="1">
                    <mxGeometry width="50" height="50" relative="1" as="geometry">
                        <mxPoint x="-133" y="765" as="sourcePoint"/>
                        <mxPoint x="-23" y="795" as="targetPoint"/>
                    </mxGeometry>
                </mxCell>
                <mxCell id="41" value="" style="edgeStyle=none;html=1;endArrow=none;endFill=0;strokeWidth=3;entryX=0;entryY=0.5;entryDx=0;entryDy=0;exitX=1;exitY=0.5;exitDx=0;exitDy=0;" parent="1" source="21" target="25" edge="1">
                    <mxGeometry relative="1" as="geometry">
                        <mxPoint x="-265" y="1136" as="sourcePoint"/>
                        <mxPoint x="-205" y="1186" as="targetPoint"/>
                    </mxGeometry>
                </mxCell>
                <mxCell id="42" value="Class" style="rounded=0;whiteSpace=wrap;html=1;" parent="1" vertex="1">
                    <mxGeometry x="499" y="720" width="120" height="60" as="geometry"/>
                </mxCell>
                <mxCell id="43" value="takes a" style="rhombus;whiteSpace=wrap;html=1;" parent="1" vertex="1">
                    <mxGeometry x="119" y="710" width="80" height="80" as="geometry"/>
                </mxCell>
                <mxCell id="45" value="" style="endArrow=none;html=1;entryX=0;entryY=0.5;entryDx=0;entryDy=0;exitX=1;exitY=0.5;exitDx=0;exitDy=0;" parent="1" source="2" target="43" edge="1">
                    <mxGeometry width="50" height="50" relative="1" as="geometry">
                        <mxPoint x="304" y="760" as="sourcePoint"/>
                        <mxPoint x="439" y="760" as="targetPoint"/>
                    </mxGeometry>
                </mxCell>
                <mxCell id="46" value="&lt;u&gt;Class ID&lt;/u&gt;" style="ellipse;whiteSpace=wrap;html=1;" parent="1" vertex="1">
                    <mxGeometry x="294" y="662" width="120" height="80" as="geometry"/>
                </mxCell>
                <mxCell id="47" value="Class Name" style="ellipse;whiteSpace=wrap;html=1;" parent="1" vertex="1">
                    <mxGeometry x="309" y="570" width="120" height="80" as="geometry"/>
                </mxCell>
                <mxCell id="48" value="Department ID" style="ellipse;whiteSpace=wrap;html=1;" parent="1" vertex="1">
                    <mxGeometry x="429" y="870" width="120" height="80" as="geometry"/>
                </mxCell>
                <mxCell id="49" value="Start Date" style="ellipse;whiteSpace=wrap;html=1;" parent="1" vertex="1">
                    <mxGeometry x="545.5" y="510" width="120" height="80" as="geometry"/>
                </mxCell>
                <mxCell id="50" value="End Date" style="ellipse;whiteSpace=wrap;html=1;" parent="1" vertex="1">
                    <mxGeometry x="665.5" y="560" width="120" height="80" as="geometry"/>
                </mxCell>
                <mxCell id="51" value="Class Time" style="ellipse;whiteSpace=wrap;html=1;" parent="1" vertex="1">
                    <mxGeometry x="727" y="662" width="120" height="80" as="geometry"/>
                </mxCell>
                <mxCell id="52" value="Credits" style="ellipse;whiteSpace=wrap;html=1;" parent="1" vertex="1">
                    <mxGeometry x="697" y="800" width="120" height="80" as="geometry"/>
                </mxCell>
                <mxCell id="53" value="Description" style="ellipse;whiteSpace=wrap;html=1;" parent="1" vertex="1">
                    <mxGeometry x="587" y="859" width="120" height="80" as="geometry"/>
                </mxCell>
                <mxCell id="55" value="has a" style="rhombus;whiteSpace=wrap;html=1;" parent="1" vertex="1">
                    <mxGeometry x="519" y="950" width="80" height="80" as="geometry"/>
                </mxCell>
                <mxCell id="56" value="Teacher" style="rounded=0;whiteSpace=wrap;html=1;" parent="1" vertex="1">
                    <mxGeometry x="947" y="1119" width="120" height="60" as="geometry"/>
                </mxCell>
                <mxCell id="61" value="has a" style="rhombus;whiteSpace=wrap;html=1;" parent="1" vertex="1">
                    <mxGeometry x="269" y="950" width="80" height="80" as="geometry"/>
                </mxCell>
                <mxCell id="63" value="Location" style="rounded=0;whiteSpace=wrap;html=1;" parent="1" vertex="1">
                    <mxGeometry x="179" y="1220" width="120" height="60" as="geometry"/>
                </mxCell>
                <mxCell id="65" value="&lt;u&gt;Location ID&lt;/u&gt;" style="ellipse;whiteSpace=wrap;html=1;" parent="1" vertex="1">
                    <mxGeometry x="99" y="1095" width="120" height="80" as="geometry"/>
                </mxCell>
                <mxCell id="66" value="Building Name" style="ellipse;whiteSpace=wrap;html=1;" parent="1" vertex="1">
                    <mxGeometry x="-1" y="1209" width="120" height="80" as="geometry"/>
                </mxCell>
                <mxCell id="67" value="Building Address" style="ellipse;whiteSpace=wrap;html=1;" parent="1" vertex="1">
                    <mxGeometry x="88" y="1325" width="120" height="80" as="geometry"/>
                </mxCell>
                <mxCell id="69" value="Room Number" style="ellipse;whiteSpace=wrap;html=1;" parent="1" vertex="1">
                    <mxGeometry x="249" y="1330" width="120" height="80" as="geometry"/>
                </mxCell>
                <mxCell id="70" value="Room Phone" style="ellipse;whiteSpace=wrap;html=1;" parent="1" vertex="1">
                    <mxGeometry x="362" y="1210" width="120" height="80" as="geometry"/>
                </mxCell>
                <mxCell id="71" value="Max Capacity" style="ellipse;whiteSpace=wrap;html=1;" parent="1" vertex="1">
                    <mxGeometry x="294" y="1109" width="120" height="80" as="geometry"/>
                </mxCell>
                <mxCell id="72" value="" style="edgeStyle=none;html=1;endArrow=none;endFill=0;strokeWidth=3;entryX=0.65;entryY=0.995;entryDx=0;entryDy=0;exitX=0.25;exitY=0;exitDx=0;exitDy=0;entryPerimeter=0;" parent="1" source="63" target="65" edge="1">
                    <mxGeometry relative="1" as="geometry">
                        <mxPoint x="161.43000000000006" y="1221.72" as="sourcePoint"/>
                        <mxPoint x="229.0035931288005" y="1120.0042712474665" as="targetPoint"/>
                    </mxGeometry>
                </mxCell>
                <mxCell id="73" value="" style="edgeStyle=none;html=1;endArrow=none;endFill=0;strokeWidth=3;entryX=1;entryY=0.5;entryDx=0;entryDy=0;exitX=0;exitY=0.5;exitDx=0;exitDy=0;" parent="1" source="63" target="66" edge="1">
                    <mxGeometry relative="1" as="geometry">
                        <mxPoint x="219" y="1230" as="sourcePoint"/>
                        <mxPoint x="187.00000000000045" y="1189.6" as="targetPoint"/>
                    </mxGeometry>
                </mxCell>
                <mxCell id="74" value="" style="edgeStyle=none;html=1;endArrow=none;endFill=0;strokeWidth=3;exitX=0.25;exitY=1;exitDx=0;exitDy=0;" parent="1" source="63" target="67" edge="1">
                    <mxGeometry relative="1" as="geometry">
                        <mxPoint x="189" y="1260" as="sourcePoint"/>
                        <mxPoint x="138.99999999999545" y="1240" as="targetPoint"/>
                    </mxGeometry>
                </mxCell>
                <mxCell id="75" value="" style="edgeStyle=none;html=1;endArrow=none;endFill=0;strokeWidth=3;entryX=0.5;entryY=0;entryDx=0;entryDy=0;exitX=0.615;exitY=1.012;exitDx=0;exitDy=0;exitPerimeter=0;" parent="1" source="63" target="69" edge="1">
                    <mxGeometry relative="1" as="geometry">
                        <mxPoint x="219" y="1290" as="sourcePoint"/>
                        <mxPoint x="171.42640687118637" y="1341.7157287525424" as="targetPoint"/>
                    </mxGeometry>
                </mxCell>
                <mxCell id="76" value="" style="edgeStyle=none;html=1;endArrow=none;endFill=0;strokeWidth=3;entryX=0;entryY=0.5;entryDx=0;entryDy=0;exitX=1;exitY=0.5;exitDx=0;exitDy=0;" parent="1" source="63" target="70" edge="1">
                    <mxGeometry relative="1" as="geometry">
                        <mxPoint x="279" y="1290" as="sourcePoint"/>
                        <mxPoint x="289" y="1370" as="targetPoint"/>
                    </mxGeometry>
                </mxCell>
                <mxCell id="77" value="" style="edgeStyle=none;html=1;endArrow=none;endFill=0;strokeWidth=3;entryX=0.75;entryY=0;entryDx=0;entryDy=0;exitX=0;exitY=1;exitDx=0;exitDy=0;" parent="1" source="71" target="63" edge="1">
                    <mxGeometry relative="1" as="geometry">
                        <mxPoint x="309" y="1275" as="sourcePoint"/>
                        <mxPoint x="348.99999999999045" y="1300" as="targetPoint"/>
                    </mxGeometry>
                </mxCell>
                <mxCell id="78" value="" style="edgeStyle=none;html=1;endArrow=none;endFill=0;strokeWidth=3;entryX=0;entryY=0.167;entryDx=0;entryDy=0;exitX=0.995;exitY=0.649;exitDx=0;exitDy=0;entryPerimeter=0;exitPerimeter=0;" parent="1" source="46" target="42" edge="1">
                    <mxGeometry relative="1" as="geometry">
                        <mxPoint x="716.5735931288073" y="910.0042712474624" as="sourcePoint"/>
                        <mxPoint x="669" y="941.72" as="targetPoint"/>
                    </mxGeometry>
                </mxCell>
                <mxCell id="79" value="" style="edgeStyle=none;html=1;endArrow=none;endFill=0;strokeWidth=3;entryX=0.146;entryY=0.017;entryDx=0;entryDy=0;exitX=0.981;exitY=0.628;exitDx=0;exitDy=0;exitPerimeter=0;entryPerimeter=0;" parent="1" source="47" target="42" edge="1">
                    <mxGeometry relative="1" as="geometry">
                        <mxPoint x="479" y="710" as="sourcePoint"/>
                        <mxPoint x="509" y="740.02" as="targetPoint"/>
                    </mxGeometry>
                </mxCell>
                <mxCell id="80" value="" style="edgeStyle=none;html=1;endArrow=none;endFill=0;strokeWidth=3;exitX=0.702;exitY=0.062;exitDx=0;exitDy=0;exitPerimeter=0;" parent="1" source="48" edge="1">
                    <mxGeometry relative="1" as="geometry">
                        <mxPoint x="459" y="610" as="sourcePoint"/>
                        <mxPoint x="539" y="780" as="targetPoint"/>
                    </mxGeometry>
                </mxCell>
                <mxCell id="81" value="" style="edgeStyle=none;html=1;endArrow=none;endFill=0;strokeWidth=3;exitX=0.5;exitY=1;exitDx=0;exitDy=0;entryX=0.673;entryY=0.027;entryDx=0;entryDy=0;entryPerimeter=0;" parent="1" source="49" target="42" edge="1">
                    <mxGeometry relative="1" as="geometry">
                        <mxPoint x="526.8000000000002" y="601.04" as="sourcePoint"/>
                        <mxPoint x="577" y="715" as="targetPoint"/>
                    </mxGeometry>
                </mxCell>
                <mxCell id="82" value="" style="edgeStyle=none;html=1;endArrow=none;endFill=0;strokeWidth=3;exitX=0;exitY=1;exitDx=0;exitDy=0;entryX=0.905;entryY=0.009;entryDx=0;entryDy=0;entryPerimeter=0;" parent="1" source="50" edge="1" target="42">
                    <mxGeometry relative="1" as="geometry">
                        <mxPoint x="606.5735931288073" y="598.284271247462" as="sourcePoint"/>
                        <mxPoint x="619" y="720" as="targetPoint"/>
                    </mxGeometry>
                </mxCell>
                <mxCell id="83" value="" style="edgeStyle=none;html=1;endArrow=none;endFill=0;strokeWidth=3;exitX=0;exitY=0.5;exitDx=0;exitDy=0;entryX=1;entryY=0.25;entryDx=0;entryDy=0;" parent="1" source="51" target="42" edge="1">
                    <mxGeometry relative="1" as="geometry">
                        <mxPoint x="706.5735931288073" y="678.284271247462" as="sourcePoint"/>
                        <mxPoint x="629" y="730" as="targetPoint"/>
                    </mxGeometry>
                </mxCell>
                <mxCell id="84" value="" style="edgeStyle=none;html=1;endArrow=none;endFill=0;strokeWidth=3;exitX=0;exitY=0;exitDx=0;exitDy=0;entryX=1.002;entryY=0.866;entryDx=0;entryDy=0;entryPerimeter=0;" parent="1" source="52" target="42" edge="1">
                    <mxGeometry relative="1" as="geometry">
                        <mxPoint x="739" y="740" as="sourcePoint"/>
                        <mxPoint x="629" y="760" as="targetPoint"/>
                    </mxGeometry>
                </mxCell>
                <mxCell id="85" value="" style="edgeStyle=none;html=1;endArrow=none;endFill=0;strokeWidth=3;exitX=0.5;exitY=0;exitDx=0;exitDy=0;entryX=0.75;entryY=1;entryDx=0;entryDy=0;" parent="1" source="53" target="42" edge="1">
                    <mxGeometry relative="1" as="geometry">
                        <mxPoint x="706.5735931288073" y="801.7157287525379" as="sourcePoint"/>
                        <mxPoint x="629.2400000000002" y="781.9599999999999" as="targetPoint"/>
                    </mxGeometry>
                </mxCell>
                <mxCell id="86" value="&lt;u&gt;Teacher ID&lt;/u&gt;" style="ellipse;whiteSpace=wrap;html=1;" parent="1" vertex="1">
                    <mxGeometry x="763.5" y="961" width="120" height="80" as="geometry"/>
                </mxCell>
                <mxCell id="87" value="First Name" style="ellipse;whiteSpace=wrap;html=1;" parent="1" vertex="1">
                    <mxGeometry x="893.5" y="910" width="120" height="80" as="geometry"/>
                </mxCell>
                <mxCell id="88" value="Last Name" style="ellipse;whiteSpace=wrap;html=1;" parent="1" vertex="1">
                    <mxGeometry x="1107" y="939" width="120" height="80" as="geometry"/>
                </mxCell>
                <mxCell id="90" value="&lt;u&gt;Email Address&lt;/u&gt;" style="ellipse;whiteSpace=wrap;html=1;" parent="1" vertex="1">
                    <mxGeometry x="1197" y="1009" width="120" height="80" as="geometry"/>
                </mxCell>
                <mxCell id="91" value="Subjects Taught" style="ellipse;whiteSpace=wrap;html=1;" parent="1" vertex="1">
                    <mxGeometry x="747" y="1209" width="120" height="80" as="geometry"/>
                </mxCell>
                <mxCell id="92" value="Level" style="ellipse;whiteSpace=wrap;html=1;" parent="1" vertex="1">
                    <mxGeometry x="707" y="1100" width="120" height="80" as="geometry"/>
                </mxCell>
                <mxCell id="93" value="Physical Address" style="ellipse;whiteSpace=wrap;html=1;" parent="1" vertex="1">
                    <mxGeometry x="1008.5" y="1289" width="120" height="80" as="geometry"/>
                </mxCell>
                <mxCell id="94" value="Mailing Address" style="ellipse;whiteSpace=wrap;html=1;" parent="1" vertex="1">
                    <mxGeometry x="857" y="1269" width="120" height="80" as="geometry"/>
                </mxCell>
                <mxCell id="95" value="has a" style="rhombus;whiteSpace=wrap;html=1;" parent="1" vertex="1">
                    <mxGeometry x="947" y="1375" width="80" height="80" as="geometry"/>
                </mxCell>
                <mxCell id="96" value="Teacher Phone" style="rounded=0;whiteSpace=wrap;html=1;" parent="1" vertex="1">
                    <mxGeometry x="961" y="1540" width="120" height="60" as="geometry"/>
                </mxCell>
                <mxCell id="97" value="&lt;u&gt;Phone Number ID&lt;/u&gt;" style="ellipse;whiteSpace=wrap;html=1;" parent="1" vertex="1">
                    <mxGeometry x="793.5" y="1530" width="120" height="80" as="geometry"/>
                </mxCell>
                <mxCell id="98" value="Teacher ID" style="ellipse;whiteSpace=wrap;html=1;" parent="1" vertex="1">
                    <mxGeometry x="883.5" y="1650" width="120" height="80" as="geometry"/>
                </mxCell>
                <mxCell id="99" value="Phone Type" style="ellipse;whiteSpace=wrap;html=1;" parent="1" vertex="1">
                    <mxGeometry x="1053.5" y="1650" width="120" height="80" as="geometry"/>
                </mxCell>
                <mxCell id="100" value="Phone Number" style="ellipse;whiteSpace=wrap;html=1;" parent="1" vertex="1">
                    <mxGeometry x="1128.5" y="1530" width="120" height="80" as="geometry"/>
                </mxCell>
                <mxCell id="101" value="" style="edgeStyle=none;html=1;endArrow=none;endFill=0;strokeWidth=3;entryX=1;entryY=0.5;entryDx=0;entryDy=0;exitX=0;exitY=0.5;exitDx=0;exitDy=0;" parent="1" source="96" target="97" edge="1">
                    <mxGeometry relative="1" as="geometry">
                        <mxPoint x="959.5" y="1300" as="sourcePoint"/>
                        <mxPoint x="889.5000000000023" y="1360" as="targetPoint"/>
                    </mxGeometry>
                </mxCell>
                <mxCell id="102" value="" style="edgeStyle=none;html=1;endArrow=none;endFill=0;strokeWidth=3;exitX=0;exitY=0.5;exitDx=0;exitDy=0;" parent="1" source="100" edge="1">
                    <mxGeometry relative="1" as="geometry">
                        <mxPoint x="1017.5" y="1580" as="sourcePoint"/>
                        <mxPoint x="1127.5" y="1570" as="targetPoint"/>
                    </mxGeometry>
                </mxCell>
                <mxCell id="103" value="" style="edgeStyle=none;html=1;endArrow=none;endFill=0;strokeWidth=3;entryX=0.5;entryY=0;entryDx=0;entryDy=0;exitX=0.25;exitY=1;exitDx=0;exitDy=0;" parent="1" source="96" target="98" edge="1">
                    <mxGeometry relative="1" as="geometry">
                        <mxPoint x="973.5" y="1580" as="sourcePoint"/>
                        <mxPoint x="923.5" y="1580" as="targetPoint"/>
                    </mxGeometry>
                </mxCell>
                <mxCell id="104" value="" style="edgeStyle=none;html=1;endArrow=none;endFill=0;strokeWidth=3;entryX=0.5;entryY=0;entryDx=0;entryDy=0;exitX=0.75;exitY=1;exitDx=0;exitDy=0;" parent="1" source="96" target="99" edge="1">
                    <mxGeometry relative="1" as="geometry">
                        <mxPoint x="1118.5" y="1610" as="sourcePoint"/>
                        <mxPoint x="1068.5" y="1660" as="targetPoint"/>
                    </mxGeometry>
                </mxCell>
                <mxCell id="105" value="" style="edgeStyle=none;html=1;endArrow=none;endFill=0;strokeWidth=3;entryX=0;entryY=0.5;entryDx=0;entryDy=0;exitX=1;exitY=0.5;exitDx=0;exitDy=0;" parent="1" source="96" target="100" edge="1">
                    <mxGeometry relative="1" as="geometry">
                        <mxPoint x="1063.5" y="1610" as="sourcePoint"/>
                        <mxPoint x="1123.5" y="1660" as="targetPoint"/>
                    </mxGeometry>
                </mxCell>
                <mxCell id="109" value="" style="edgeStyle=none;html=1;endArrow=none;endFill=0;strokeWidth=3;exitX=0.175;exitY=-0.012;exitDx=0;exitDy=0;entryX=1;entryY=1;entryDx=0;entryDy=0;exitPerimeter=0;" parent="1" source="56" target="86" edge="1">
                    <mxGeometry relative="1" as="geometry">
                        <mxPoint x="1045.6635931288072" y="1088.8757287525377" as="sourcePoint"/>
                        <mxPoint x="968.3300000000002" y="1069.12" as="targetPoint"/>
                    </mxGeometry>
                </mxCell>
                <mxCell id="110" value="" style="edgeStyle=none;html=1;endArrow=none;endFill=0;strokeWidth=3;entryX=0.5;entryY=1;entryDx=0;entryDy=0;exitX=0.433;exitY=0.001;exitDx=0;exitDy=0;exitPerimeter=0;" parent="1" source="56" target="87" edge="1">
                    <mxGeometry relative="1" as="geometry">
                        <mxPoint x="859" y="1109" as="sourcePoint"/>
                        <mxPoint x="954" y="1069" as="targetPoint"/>
                    </mxGeometry>
                </mxCell>
                <mxCell id="111" value="" style="edgeStyle=none;html=1;endArrow=none;endFill=0;strokeWidth=3;exitX=0.75;exitY=0;exitDx=0;exitDy=0;entryX=0.275;entryY=0.975;entryDx=0;entryDy=0;entryPerimeter=0;" parent="1" source="56" target="88" edge="1">
                    <mxGeometry relative="1" as="geometry">
                        <mxPoint x="1047" y="1129" as="sourcePoint"/>
                        <mxPoint x="1107" y="1069" as="targetPoint"/>
                    </mxGeometry>
                </mxCell>
                <mxCell id="112" value="" style="edgeStyle=none;html=1;endArrow=none;endFill=0;strokeWidth=3;exitX=1;exitY=0.25;exitDx=0;exitDy=0;entryX=0;entryY=1;entryDx=0;entryDy=0;" parent="1" source="56" target="90" edge="1">
                    <mxGeometry relative="1" as="geometry">
                        <mxPoint x="1077" y="1144" as="sourcePoint"/>
                        <mxPoint x="1166.9999999999905" y="1089" as="targetPoint"/>
                    </mxGeometry>
                </mxCell>
                <mxCell id="113" value="" style="edgeStyle=none;html=1;endArrow=none;endFill=0;strokeWidth=3;exitX=0.685;exitY=0.993;exitDx=0;exitDy=0;entryX=0.42;entryY=0.008;entryDx=0;entryDy=0;entryPerimeter=0;exitPerimeter=0;" parent="1" source="56" target="93" edge="1">
                    <mxGeometry relative="1" as="geometry">
                        <mxPoint x="1077" y="1174" as="sourcePoint"/>
                        <mxPoint x="1197" y="1179" as="targetPoint"/>
                    </mxGeometry>
                </mxCell>
                <mxCell id="114" value="" style="edgeStyle=none;html=1;endArrow=none;endFill=0;strokeWidth=3;entryX=0.678;entryY=0.021;entryDx=0;entryDy=0;entryPerimeter=0;exitX=0.25;exitY=1;exitDx=0;exitDy=0;" parent="1" source="56" target="94" edge="1">
                    <mxGeometry relative="1" as="geometry">
                        <mxPoint x="1077" y="1189" as="sourcePoint"/>
                        <mxPoint x="1154.5735931288073" y="1230.7157287525379" as="targetPoint"/>
                    </mxGeometry>
                </mxCell>
                <mxCell id="115" value="" style="edgeStyle=none;html=1;endArrow=none;endFill=0;strokeWidth=3;exitX=0;exitY=1;exitDx=0;exitDy=0;entryX=1;entryY=0;entryDx=0;entryDy=0;" parent="1" source="56" target="91" edge="1">
                    <mxGeometry relative="1" as="geometry">
                        <mxPoint x="1047" y="1189" as="sourcePoint"/>
                        <mxPoint x="1077" y="1269" as="targetPoint"/>
                    </mxGeometry>
                </mxCell>
                <mxCell id="116" value="" style="edgeStyle=none;html=1;endArrow=none;endFill=0;strokeWidth=3;exitX=0.01;exitY=0.623;exitDx=0;exitDy=0;entryX=1;entryY=0.5;entryDx=0;entryDy=0;exitPerimeter=0;" parent="1" source="56" target="92" edge="1">
                    <mxGeometry relative="1" as="geometry">
                        <mxPoint x="957" y="1189" as="sourcePoint"/>
                        <mxPoint x="929.4264068711932" y="1250.7157287525383" as="targetPoint"/>
                    </mxGeometry>
                </mxCell>
                <mxCell id="117" value="" style="edgeStyle=none;html=1;endArrow=none;endFill=0;strokeWidth=3;entryX=0;entryY=0;entryDx=0;entryDy=0;exitX=0.75;exitY=1;exitDx=0;exitDy=0;" parent="1" source="2" target="31" edge="1">
                    <mxGeometry relative="1" as="geometry">
                        <mxPoint x="-177" y="790" as="sourcePoint"/>
                        <mxPoint x="-177" y="840" as="targetPoint"/>
                    </mxGeometry>
                </mxCell>
                <mxCell id="119" value="" style="edgeStyle=none;html=1;endArrow=classic;endFill=1;strokeWidth=3;exitX=0.166;exitY=1.023;exitDx=0;exitDy=0;entryX=1;entryY=0.5;entryDx=0;entryDy=0;exitPerimeter=0;" parent="1" source="42" target="61" edge="1">
                    <mxGeometry relative="1" as="geometry">
                        <mxPoint x="459.00363636363625" y="869.56" as="sourcePoint"/>
                        <mxPoint x="461.7511111111111" y="930.0044444444443" as="targetPoint"/>
                    </mxGeometry>
                </mxCell>
                <mxCell id="121" value="" style="edgeStyle=none;html=1;endArrow=classic;endFill=1;strokeWidth=3;exitX=0.5;exitY=0;exitDx=0;exitDy=0;entryX=0.5;entryY=1;entryDx=0;entryDy=0;" parent="1" source="21" target="19" edge="1">
                    <mxGeometry relative="1" as="geometry">
                        <mxPoint x="-200" y="966" as="sourcePoint"/>
                        <mxPoint x="-431" y="996" as="targetPoint"/>
                    </mxGeometry>
                </mxCell>
                <mxCell id="123" value="" style="edgeStyle=none;html=1;endArrow=classic;endFill=1;strokeWidth=3;exitX=0.5;exitY=0;exitDx=0;exitDy=0;entryX=0.5;entryY=1;entryDx=0;entryDy=0;" parent="1" source="96" target="95" edge="1">
                    <mxGeometry relative="1" as="geometry">
                        <mxPoint x="828" y="1298" as="sourcePoint"/>
                        <mxPoint x="848" y="1468" as="targetPoint"/>
                    </mxGeometry>
                </mxCell>
                <mxCell id="124" value="" style="edgeStyle=none;html=1;endArrow=none;endFill=0;strokeWidth=3;entryX=0.5;entryY=1;entryDx=0;entryDy=0;exitX=0.5;exitY=0;exitDx=0;exitDy=0;" parent="1" source="95" target="56" edge="1">
                    <mxGeometry relative="1" as="geometry">
                        <mxPoint x="1025" y="1359" as="sourcePoint"/>
                        <mxPoint x="1094.500000000009" y="1569" as="targetPoint"/>
                    </mxGeometry>
                </mxCell>
                <mxCell id="125" value="" style="edgeStyle=none;html=1;endArrow=none;endFill=0;strokeWidth=3;entryX=0.5;entryY=0;entryDx=0;entryDy=0;exitX=0.166;exitY=1.004;exitDx=0;exitDy=0;exitPerimeter=0;" parent="1" source="2" target="19" edge="1">
                    <mxGeometry relative="1" as="geometry">
                        <mxPoint x="-116.99999999999977" y="774.9999999999999" as="sourcePoint"/>
                        <mxPoint x="-37" y="820" as="targetPoint"/>
                    </mxGeometry>
                </mxCell>
                <mxCell id="126" value="" style="edgeStyle=none;html=1;endArrow=none;endFill=0;strokeWidth=3;entryX=0;entryY=0.5;entryDx=0;entryDy=0;exitX=1;exitY=0.5;exitDx=0;exitDy=0;" parent="1" source="43" target="42" edge="1">
                    <mxGeometry relative="1" as="geometry">
                        <mxPoint x="458.99999999999" y="610" as="sourcePoint"/>
                        <mxPoint x="539" y="730" as="targetPoint"/>
                    </mxGeometry>
                </mxCell>
                <mxCell id="127" value="" style="edgeStyle=none;html=1;endArrow=classic;endFill=1;strokeWidth=3;exitX=0.5;exitY=1;exitDx=0;exitDy=0;entryX=0.5;entryY=0;entryDx=0;entryDy=0;" parent="1" source="42" target="55" edge="1">
                    <mxGeometry relative="1" as="geometry">
                        <mxPoint x="558.52" y="810" as="sourcePoint"/>
                        <mxPoint x="559" y="960" as="targetPoint"/>
                    </mxGeometry>
                </mxCell>
                <mxCell id="129" value="Start Date" style="ellipse;whiteSpace=wrap;html=1;" parent="1" vertex="1">
                    <mxGeometry x="1214" y="1099" width="120" height="80" as="geometry"/>
                </mxCell>
                <mxCell id="130" value="End Date" style="ellipse;whiteSpace=wrap;html=1;" parent="1" vertex="1">
                    <mxGeometry x="1197" y="1189" width="120" height="80" as="geometry"/>
                </mxCell>
                <mxCell id="131" value="Status" style="ellipse;whiteSpace=wrap;html=1;" parent="1" vertex="1">
                    <mxGeometry x="1137" y="1269" width="120" height="80" as="geometry"/>
                </mxCell>
                <mxCell id="133" value="" style="edgeStyle=none;html=1;endArrow=none;endFill=0;strokeWidth=3;exitX=1;exitY=0.5;exitDx=0;exitDy=0;entryX=0;entryY=0.5;entryDx=0;entryDy=0;" parent="1" source="56" target="129" edge="1">
                    <mxGeometry relative="1" as="geometry">
                        <mxPoint x="1077" y="1144" as="sourcePoint"/>
                        <mxPoint x="1214.5735931288073" y="1067.284271247462" as="targetPoint"/>
                    </mxGeometry>
                </mxCell>
                <mxCell id="134" value="" style="endArrow=none;html=1;entryX=0.011;entryY=0.388;entryDx=0;entryDy=0;exitX=1;exitY=0.75;exitDx=0;exitDy=0;entryPerimeter=0;" parent="1" source="56" target="130" edge="1">
                    <mxGeometry width="50" height="50" relative="1" as="geometry">
                        <mxPoint x="1047" y="1199" as="sourcePoint"/>
                        <mxPoint x="1097" y="1149" as="targetPoint"/>
                    </mxGeometry>
                </mxCell>
                <mxCell id="135" value="" style="edgeStyle=none;html=1;endArrow=none;endFill=0;strokeWidth=3;" parent="1" target="131" edge="1">
                    <mxGeometry relative="1" as="geometry">
                        <mxPoint x="1047" y="1179" as="sourcePoint"/>
                        <mxPoint x="1064.5735931288073" y="1300.715728752538" as="targetPoint"/>
                    </mxGeometry>
                </mxCell>
                <mxCell id="136" value="" style="edgeStyle=none;html=1;endArrow=none;endFill=0;strokeWidth=3;exitX=0;exitY=0.25;exitDx=0;exitDy=0;entryX=1;entryY=0.5;entryDx=0;entryDy=0;" parent="1" source="56" target="55" edge="1">
                    <mxGeometry relative="1" as="geometry">
                        <mxPoint x="987" y="1030" as="sourcePoint"/>
                        <mxPoint x="727" y="990" as="targetPoint"/>
                    </mxGeometry>
                </mxCell>
                <mxCell id="138" value="" style="endArrow=none;html=1;exitX=0.5;exitY=0;exitDx=0;exitDy=0;entryX=0;entryY=0.5;entryDx=0;entryDy=0;" parent="1" source="63" target="61" edge="1">
                    <mxGeometry width="50" height="50" relative="1" as="geometry">
                        <mxPoint x="349" y="1010" as="sourcePoint"/>
                        <mxPoint x="399" y="960" as="targetPoint"/>
                    </mxGeometry>
                </mxCell>
                <mxCell id="139" value="Department" style="rounded=0;whiteSpace=wrap;html=1;" parent="1" vertex="1">
                    <mxGeometry x="1066" y="682" width="120" height="60" as="geometry"/>
                </mxCell>
                <mxCell id="140" value="&lt;u&gt;Department ID&lt;/u&gt;" style="ellipse;whiteSpace=wrap;html=1;" parent="1" vertex="1">
                    <mxGeometry x="893.5" y="535" width="120" height="80" as="geometry"/>
                </mxCell>
                <mxCell id="141" value="Department Name" style="ellipse;whiteSpace=wrap;html=1;" parent="1" vertex="1">
                    <mxGeometry x="1067" y="490" width="120" height="80" as="geometry"/>
                </mxCell>
                <mxCell id="145" value="" style="edgeStyle=none;html=1;endArrow=none;endFill=0;strokeWidth=3;exitX=0.5;exitY=0;exitDx=0;exitDy=0;entryX=0.5;entryY=1;entryDx=0;entryDy=0;" parent="1" source="139" target="141" edge="1">
                    <mxGeometry relative="1" as="geometry">
                        <mxPoint x="996" y="854" as="sourcePoint"/>
                        <mxPoint x="1156" y="824" as="targetPoint"/>
                    </mxGeometry>
                </mxCell>
                <mxCell id="146" value="" style="edgeStyle=none;html=1;endArrow=none;endFill=0;strokeWidth=3;entryX=1;entryY=1;entryDx=0;entryDy=0;exitX=0.25;exitY=0;exitDx=0;exitDy=0;" parent="1" source="139" target="140" edge="1">
                    <mxGeometry relative="1" as="geometry">
                        <mxPoint x="1057" y="675" as="sourcePoint"/>
                        <mxPoint x="1255.9999999999905" y="722" as="targetPoint"/>
                    </mxGeometry>
                </mxCell>
                <mxCell id="147" value="has a" style="rhombus;whiteSpace=wrap;html=1;" parent="1" vertex="1">
                    <mxGeometry x="1027" y="850" width="80" height="80" as="geometry"/>
                </mxCell>
                <mxCell id="148" value="has a" style="rhombus;whiteSpace=wrap;html=1;" parent="1" vertex="1">
                    <mxGeometry x="913.5" y="720" width="80" height="80" as="geometry"/>
                </mxCell>
                <mxCell id="149" value="" style="edgeStyle=none;html=1;endArrow=classic;endFill=1;strokeWidth=3;exitX=1;exitY=0.75;exitDx=0;exitDy=0;entryX=0;entryY=0.5;entryDx=0;entryDy=0;" parent="1" source="42" target="148" edge="1">
                    <mxGeometry relative="1" as="geometry">
                        <mxPoint x="569" y="790" as="sourcePoint"/>
                        <mxPoint x="569" y="960.0000000000001" as="targetPoint"/>
                    </mxGeometry>
                </mxCell>
                <mxCell id="150" value="" style="edgeStyle=none;html=1;endArrow=none;endFill=0;strokeWidth=3;entryX=0;entryY=0.5;entryDx=0;entryDy=0;exitX=1;exitY=0.5;exitDx=0;exitDy=0;" parent="1" source="148" target="139" edge="1">
                    <mxGeometry relative="1" as="geometry">
                        <mxPoint x="1008.96" y="1030.0600000000002" as="sourcePoint"/>
                        <mxPoint x="977" y="939.9999999999999" as="targetPoint"/>
                    </mxGeometry>
                </mxCell>
                <mxCell id="152" value="" style="edgeStyle=none;html=1;endArrow=classic;endFill=1;strokeWidth=3;exitX=0.578;exitY=-0.012;exitDx=0;exitDy=0;entryX=0.5;entryY=1;entryDx=0;entryDy=0;exitPerimeter=0;" parent="1" source="56" target="147" edge="1">
                    <mxGeometry relative="1" as="geometry">
                        <mxPoint x="757" y="874" as="sourcePoint"/>
                        <mxPoint x="1061.9999999999995" y="989" as="targetPoint"/>
                    </mxGeometry>
                </mxCell>
                <mxCell id="153" value="" style="edgeStyle=none;html=1;endArrow=none;endFill=0;strokeWidth=3;entryX=0.5;entryY=1;entryDx=0;entryDy=0;exitX=0.5;exitY=0;exitDx=0;exitDy=0;" parent="1" source="147" target="139" edge="1">
                    <mxGeometry relative="1" as="geometry">
                        <mxPoint x="1061.9999999999995" y="810" as="sourcePoint"/>
                        <mxPoint x="1062" y="727" as="targetPoint"/>
                    </mxGeometry>
                </mxCell>
                <mxCell id="154" value="Department Description" style="ellipse;whiteSpace=wrap;html=1;" parent="1" vertex="1">
                    <mxGeometry x="1227" y="535" width="120" height="80" as="geometry"/>
                </mxCell>
                <mxCell id="155" value="" style="edgeStyle=none;html=1;endArrow=none;endFill=0;strokeWidth=3;entryX=0;entryY=1;entryDx=0;entryDy=0;exitX=0.829;exitY=-0.02;exitDx=0;exitDy=0;exitPerimeter=0;" parent="1" source="139" target="154" edge="1">
                    <mxGeometry relative="1" as="geometry">
                        <mxPoint x="1187" y="745" as="sourcePoint"/>
                        <mxPoint x="1266.88" y="685.52" as="targetPoint"/>
                    </mxGeometry>
                </mxCell>
                <mxCell id="156" value="Issues to a Student a" style="rhombus;whiteSpace=wrap;html=1;" parent="1" vertex="1">
                    <mxGeometry x="294" y="790" width="80" height="80" as="geometry"/>
                </mxCell>
                <mxCell id="157" value="Grade" style="ellipse;whiteSpace=wrap;html=1;" parent="1" vertex="1">
                    <mxGeometry x="139" y="881" width="120" height="80" as="geometry"/>
                </mxCell>
                <mxCell id="158" value="" style="endArrow=classic;html=1;exitX=0;exitY=0.75;exitDx=0;exitDy=0;entryX=1;entryY=0.5;entryDx=0;entryDy=0;" parent="1" source="42" target="156" edge="1">
                    <mxGeometry width="50" height="50" relative="1" as="geometry">
                        <mxPoint x="349" y="820" as="sourcePoint"/>
                        <mxPoint x="389" y="820" as="targetPoint"/>
                    </mxGeometry>
                </mxCell>
                <mxCell id="160" value="" style="endArrow=classic;html=1;exitX=1;exitY=0;exitDx=0;exitDy=0;entryX=0;entryY=0.5;entryDx=0;entryDy=0;" parent="1" source="157" target="156" edge="1">
                    <mxGeometry width="50" height="50" relative="1" as="geometry">
                        <mxPoint x="509" y="775" as="sourcePoint"/>
                        <mxPoint x="319" y="890" as="targetPoint"/>
                    </mxGeometry>
                </mxCell>
                <mxCell id="161" value="Semester" style="ellipse;whiteSpace=wrap;html=1;" parent="1" vertex="1">
                    <mxGeometry x="419" y="520" width="120" height="80" as="geometry"/>
                </mxCell>
                <mxCell id="162" value="" style="edgeStyle=none;html=1;endArrow=none;endFill=0;strokeWidth=3;entryX=0.372;entryY=-0.012;entryDx=0;entryDy=0;entryPerimeter=0;" parent="1" source="161" target="42" edge="1">
                    <mxGeometry relative="1" as="geometry">
                        <mxPoint x="441.27999999999975" y="633.28" as="sourcePoint"/>
                        <mxPoint x="549" y="710" as="targetPoint"/>
                    </mxGeometry>
                </mxCell>
            </root>
        </mxGraphModel>
    </diagram>
</mxfile>